<?xml version="1.0" encoding="UTF-8"?>
<svg width="23px" height="23px" viewBox="0 0 23 23" version="1.1" xmlns="http://www.w3.org/2000/svg" xmlns:xlink="http://www.w3.org/1999/xlink">
    <g stroke="none" stroke-width="1" fill="#000" fill-rule="evenodd">
        <path d="M6.78583779,19.7496961 L5.84531696,20.6902169 C5.45359354,21.0819404 4.82228392,21.0857399 4.42906831,20.6925243 L2.30747572,18.5709317 C1.91702661,18.1804826 1.91086679,17.5535993 2.30978305,17.154683 L3.25030389,16.2141622 C2.85597427,15.5255784 2.54537317,14.7828979 2.33237981,14 L1.00307055,14 C0.449089982,14 0,13.5562834 0,13.0001925 L0,9.99980749 C0,9.44762906 0.438917756,9 1.00307055,9 L2.33237981,9 C2.54537317,8.2171021 2.85597427,7.47442163 3.25030389,6.78583779 L2.30978305,5.84531696 C1.91805964,5.45359354 1.91426011,4.82228392 2.30747572,4.42906831 L4.42906831,2.30747572 C4.81951742,1.91702661 5.44640069,1.91086679 5.84531696,2.30978305 L6.78583779,3.25030389 C7.47442163,2.85597427 8.2171021,2.54537317 9,2.33237981 L9,1.00307055 C9,0.449089982 9.44371665,0 9.99980749,0 L13.0001925,0 C13.5523709,0 14,0.438917756 14,1.00307055 L14,2.33237981 C14.7828979,2.54537317 15.5255784,2.85597427 16.2141622,3.25030389 L17.154683,2.30978305 C17.5464065,1.91805964 18.1777161,1.91426011 18.5709317,2.30747572 L20.6925243,4.42906831 C21.0829734,4.81951742 21.0891332,5.44640069 20.6902169,5.84531696 L19.7496961,6.78583779 C20.1440257,7.47442163 20.4546268,8.2171021 20.6676202,9 L21.9969294,9 C22.55091,9 23,9.44371665 23,9.99980749 L23,13.0001925 C23,13.5523709 22.5610822,14 21.9969294,14 L20.6676202,14 C20.4546268,14.7828979 20.1440257,15.5255784 19.7496961,16.2141622 L20.6902169,17.154683 C21.0819404,17.5464065 21.0857399,18.1777161 20.6925243,18.5709317 L18.5709317,20.6925243 C18.1804826,21.0829734 17.5535993,21.0891332 17.154683,20.6902169 L16.2141622,19.7496961 C15.5255784,20.1440257 14.7828979,20.4546268 14,20.6676202 L14,21.9969294 C14,22.55091 13.5562834,23 13.0001925,23 L9.99980749,23 C9.44762906,23 9,22.5610822 9,21.9969294 L9,20.6676202 C8.2171021,20.4546268 7.47442163,20.1440257 6.78583779,19.7496961 Z M11.5,18 C15.0898509,18 18,15.0898509 18,11.5 C18,7.91014913 15.0898509,5 11.5,5 C7.91014913,5 5,7.91014913 5,11.5 C5,15.0898509 7.91014913,18 11.5,18 Z"></path>
        <circle id="Center" fill="#FF0000" cx="11.5" cy="11.5" r="2.5"></circle>
    </g>
</svg>
